<?xml version="1.0" encoding="UTF-8" standalone="no"?>
<!-- By https://commons.wikimedia.org/w/index.php?title=File:Antu_tag-places.svg&amp;action=history - File:Antu tag-places.svg, CC BY 3.0, https://commons.wikimedia.org/w/index.php?curid=53807735 -->
<svg xmlns="http://www.w3.org/2000/svg" viewBox="0 0 18.002001 18.007" enable-background="new 0 0 18.002001 18.007" id="svg2" width="18.002001" height="18.007">
<style>
path { color: #ffffff; fill: #000000; }
@media (prefers-color-scheme: dark) {
  path { color: #000000; fill: #ffffff; }
}
</style>
<path d="M 9.005,1 C 8.686,1 8.377,1.026 8.067,1.063 7.763,1.099 7.453,1.15 7.161,1.219 7.067,1.241 6.976,1.286 6.88,1.313 6.796,1.336 6.713,1.35 6.63,1.376 6.525,1.409 6.416,1.435 6.317,1.47 6.21,1.508 6.11,1.553 6.004,1.595 5.798,1.678 5.607,1.777 5.41,1.876 5.339,1.912 5.261,1.932 5.191,1.97 4.961,2.091 4.75,2.233 4.535,2.376 4.453,2.431 4.365,2.474 4.285,2.532 4.252,2.556 4.224,2.57 4.191,2.595 4.097,2.666 4,2.737 3.91,2.814 3.803,2.903 3.7,3.001 3.597,3.095 3.565,3.125 3.535,3.159 3.503,3.189 3.492,3.2 3.483,3.209 3.472,3.22 3.456,3.236 3.457,3.267 3.441,3.283 3.231,3.487 3.002,3.682 2.816,3.908 2.811,3.909 2.821,3.933 2.816,3.939 2.635,4.159 2.473,4.387 2.316,4.627 2.295,4.659 2.274,4.688 2.253,4.721 2.238,4.745 2.206,4.758 2.19,4.784 2.13,4.882 2.089,4.993 2.034,5.097 2.016,5.13 1.989,5.158 1.971,5.191 1.896,5.337 1.821,5.481 1.752,5.629 1.748,5.63 1.756,5.652 1.752,5.66 1.635,5.913 1.53,6.174 1.439,6.441 1.42,6.494 1.394,6.544 1.376,6.597 1.373,6.598 1.379,6.619 1.376,6.628 1.356,6.69 1.332,6.753 1.313,6.816 1.24,7.073 1.173,7.33 1.125,7.597 1.091,7.789 1.051,7.994 1.031,8.191 1.004,8.456 1,8.733 1,9.004 c 0,0.404 0.036,0.8 0.094,1.188 0.006,0.041 -0.007,0.085 0,0.125 0.044,0.266 0.118,0.525 0.188,0.781 0.026,0.096 0.064,0.186 0.094,0.281 0.04,0.129 0.079,0.249 0.125,0.375 0.077,0.212 0.156,0.422 0.25,0.625 0.05,0.106 0.102,0.21 0.156,0.313 0.152,0.292 0.315,0.575 0.5,0.844 0.016,0.024 0.046,0.039 0.063,0.063 0.198,0.281 0.394,0.56 0.625,0.813 0.04,0.044 0.084,0.082 0.125,0.125 0.04,0.042 0.084,0.084 0.125,0.125 0.214,0.214 0.451,0.405 0.688,0.594 0.306,0.244 0.629,0.459 0.969,0.656 0.012,10e-4 0.019,0.024 0.031,0.031 0.053,0.03 0.103,0.065 0.156,0.094 0.316,0.156 0.692,0.325 0.938,0.438 0.11,0.042 0.231,0.057 0.344,0.094 0.053,0.018 0.103,0.046 0.156,0.063 0.136,0.041 0.268,0.09 0.406,0.125 0.042,0.011 0.083,0.021 0.125,0.031 0.292,0.069 0.602,0.121 0.906,0.156 0.309,0.036 0.618,0.063 0.938,0.063 0.34,0 0.671,-0.021 1,-0.063 0.365,-0.048 0.681,-0.124 1,-0.188 1.698,-0.436 3.162,-1.421 4.219,-2.749 0.028,-0.035 0.067,-0.058 0.094,-0.094 0.009,-0.012 0.022,-0.02 0.031,-0.031 0.014,-0.018 0.018,-0.044 0.031,-0.063 0.623,-0.825 1.077,-1.78 1.344,-2.812 0.056,-0.217 0.118,-0.432 0.156,-0.656 0.005,-0.03 -0.005,-0.063 0,-0.094 0.006,-0.04 0.025,-0.079 0.031,-0.125 0.006,-0.043 0.026,-0.082 0.031,-0.125 l -0.031,0 c 0.044,-0.329 0.094,-0.659 0.094,-1 0,-0.552 -0.05,-1.103 -0.156,-1.624 C 16.837,7.34 16.824,7.301 16.815,7.258 16.769,7.05 16.691,6.835 16.627,6.633 16.624,6.632 16.63,6.611 16.627,6.602 16.615,6.564 16.609,6.546 16.596,6.508 16.557,6.389 16.515,6.25 16.471,6.133 16.459,6.101 16.453,6.069 16.44,6.039 16.397,5.93 16.332,5.833 16.284,5.726 c -0.002,0 0.002,-0.026 0,-0.031 C 16.259,5.641 16.216,5.592 16.19,5.539 16.092,5.336 15.992,5.139 15.877,4.945 15.819,4.847 15.783,4.728 15.721,4.632 15.697,4.596 15.652,4.574 15.627,4.538 15.56,4.439 15.48,4.353 15.408,4.257 15.328,4.157 15.268,4.041 15.189,3.944 15.184,3.943 15.194,3.919 15.189,3.913 15.017,3.704 14.819,3.51 14.626,3.319 14.533,3.227 14.442,3.125 14.345,3.038 14.317,3.013 14.28,3 14.251,2.975 14.042,2.793 13.821,2.635 13.595,2.475 13.54,2.437 13.494,2.387 13.439,2.35 13.369,2.304 13.291,2.269 13.22,2.225 13.085,2.141 12.954,2.051 12.814,1.975 12.691,1.908 12.566,1.848 12.439,1.787 12.225,1.685 12.007,1.589 11.783,1.506 11.517,1.407 11.249,1.326 10.97,1.256 10.725,1.194 10.473,1.138 10.22,1.1 9.823,1.039 9.415,1.006 9.001,1.006 m 0,1 c 0.299,0 0.585,0.027 0.875,0.063 0.18,0.023 0.355,0.058 0.531,0.094 10e-4,0 0.021,0 0.031,0 0.166,0.035 0.338,0.079 0.5,0.125 0.096,0.027 0.187,0.063 0.281,0.094 0.172,0.057 0.334,0.117 0.5,0.188 0.194,0.08 0.379,0.153 0.563,0.25 -0.031,0.001 -0.063,0.021 -0.094,0.031 -0.047,0.017 -0.113,0.096 -0.125,0.125 -0.02,0.048 0.005,0.115 0,0.188 0.038,0.017 0.06,0.089 0.125,0.125 0.025,0.014 0.041,-0.001 0.063,0 0.038,0.021 0.07,0.087 0.063,0.125 -0.011,0.055 -0.088,0.022 -0.125,0.063 0.006,0.078 -0.043,0.105 -0.063,0.156 0.012,0.033 0.057,0.024 0.063,0.063 C 12.182,3.739 12.11,3.745 12.126,3.79 12.198,3.846 12.277,3.768 12.345,3.759 12.494,3.74 12.628,3.8 12.72,3.728 12.708,3.657 12.821,3.636 12.814,3.572 12.808,3.524 12.724,3.511 12.689,3.478 12.67,3.46 12.649,3.419 12.626,3.384 12.6,3.344 12.562,3.297 12.532,3.259 12.493,3.207 12.407,3.142 12.407,3.103 12.4071,3.058 12.459,3.04 12.47,2.978 c -0.012,-0.057 -0.117,0 -0.125,-0.063 0.002,-0.019 0.021,-0.051 0.031,-0.063 0.15,0.082 0.298,0.179 0.438,0.281 0.032,0.021 0.062,0.041 0.094,0.063 0.108,0.081 0.207,0.17 0.313,0.25 -0.067,0.012 -0.101,0.09 -0.156,0.156 -0.038,0.046 -0.099,0.101 -0.156,0.125 -0.028,0.012 -0.068,-0.016 -0.094,0 C 12.778,3.752 12.764,3.823 12.721,3.852 12.69,3.873 12.597,3.946 12.565,3.946 12.527,3.9461 12.467,3.906 12.44,3.915 12.4,3.928 12.423,3.992 12.377,4.009 12.289,4.04 12.127,3.94 12.096,4.072 c 0.038,0.076 0.153,0.051 0.219,0.094 0.042,0.026 0.114,0.143 0.125,0.188 0.001,0.038 0.015,0.179 0,0.219 -0.041,0.106 -0.159,0.097 -0.281,0.094 -0.034,-10e-5 -0.063,0 -0.094,0 -0.207,-0.014 -0.407,-0.085 -0.5,0.063 0.007,0.113 0.025,0.183 0,0.281 -0.018,0.072 -0.097,0.125 -0.094,0.188 0.002,0.032 0.055,0.082 0.063,0.125 0.005,0.023 -0.011,0.073 0,0.094 0.034,0.066 0.127,-0.001 0.188,0 0.059,10e-4 0.126,0.121 0.125,0.188 -10e-5,0.046 -0.033,0.112 -0.063,0.156 -0.058,0.089 -0.167,0.077 -0.25,0.125 -0.07,0.039 -0.084,0.119 -0.125,0.188 -0.044,0.074 -0.081,0.111 -0.063,0.219 -0.06,0.118 -0.126,0.194 -0.25,0.25 -0.037,0.017 -0.092,0.039 -0.125,0.063 -0.027,0.019 -0.056,0.051 -0.094,0.094 -0.047,0.052 -0.1,0.085 -0.125,0.125 -0.019,0.031 -0.001,0.084 -0.031,0.125 -0.029,0.056 -0.088,0.1 -0.125,0.156 -0.017,0.026 -0.043,0.059 -0.063,0.094 -0.042,0.077 -0.101,0.151 -0.094,0.219 0.007,0.066 0.089,0.068 0.094,0.125 0.004,0.032 -0.033,0.059 -0.031,0.094 10e-5,0.051 0.027,0.086 0.031,0.125 0.001,0.099 -0.044,0.12 -0.063,0.188 -0.009,0.032 0.008,0.068 0,0.094 -0.016,0.05 -0.093,0.098 -0.094,0.156 -10e-5,0.042 0.059,0.097 0.063,0.156 0.002,0.04 -0.038,0.057 -0.031,0.094 0.014,0.073 0.162,0.162 0.219,0.219 0.075,0.075 0.155,0.139 0.188,0.219 0.027,0.067 0.041,0.168 0.094,0.219 0.039,0.037 0.106,0.054 0.156,0.094 0.047,0.036 0.107,0.055 0.156,0.094 0.081,0.064 0.183,0.197 0.313,0.188 0.068,-10e-4 0.142,-0.05 0.219,-0.063 0.079,-0.014 0.17,-0.039 0.25,-0.031 0.061,10e-4 0.124,0.066 0.188,0.063 0.067,0 0.143,-0.061 0.219,-0.094 0.132,-0.057 0.339,-0.153 0.531,-0.125 0.146,0.021 0.149,0.217 0.25,0.281 0.118,10e-4 0.219,-0.054 0.313,-0.031 0.07,0.017 0.149,0.132 0.156,0.188 0.007,0.058 -0.054,0.121 -0.063,0.156 -0.018,0.078 -0.017,0.169 -0.031,0.219 -0.011,0.038 -0.032,0.086 -0.031,0.125 0,0.035 0.058,0.142 0.094,0.188 0.044,0.056 0.103,0.096 0.156,0.156 0.087,0.109 0.155,0.236 0.219,0.375 0.017,0.037 -0.016,0.077 0,0.125 -0.029,0.224 -0.103,0.377 -0.25,0.625 -0.069,0.08 -0.158,0.15 -0.156,0.25 -0.005,0.24 0.136,0.393 0.125,0.625 -0.024,0.312 0.024,0.333 0,0.5 0.105,0.053 0.031,0.233 0,0.344 -0.045,0.132 -0.1,0.162 -0.125,0.25 0.071,0.031 0.171,0.019 0.25,0 0,0 0.096,0.401 0.094,0.406 -0.807,0.797 -1.819,1.387 -2.938,1.718 -0.55,0.133 -0.713,0.133 -0.969,0.188 -0.334,0.055 -0.683,0.094 -1.031,0.094 -0.243,0 -0.483,-0.001 -0.719,-0.031 C 8.103,15.968 7.931,15.924 7.754,15.892 7.701,15.891 7.65,15.872 7.598,15.861 7.435,15.806 7.247,15.773 7.098,15.736 6.928,15.688 6.763,15.64 6.598,15.58 c 0.014,-0.013 0.027,-0.011 0.031,-0.031 0.009,-0.04 0.002,-0.062 0,-0.125 0.015,-0.065 0.08,-0.058 0.094,-0.125 C 6.695,15.251 6.64,15.261 6.598,15.236 6.557,15.212 6.53,15.162 6.535,15.111 c 0.07,-0.029 0.2,0.066 0.25,-0.031 0.025,-0.046 -0.034,-0.141 0,-0.188 C 6.808,14.861 6.954,14.837 7.004,14.829 7.075,14.817 7.152,14.828 7.192,14.798 7.236,14.769 7.293,14.693 7.286,14.61 7.282,14.571 7.253,14.551 7.223,14.516 7.198,14.487 7.21,14.45 7.192,14.422 7.161,14.375 7.112,14.364 7.098,14.297 c 0.096,-0.019 0.236,0.102 0.375,0.063 0.066,-0.019 0.157,-0.188 0.188,-0.25 0.001,-0.019 -10e-4,-0.04 0,-0.063 0.012,-0.026 0.059,-0.049 0.063,-0.063 10e-4,-0.036 -0.008,-0.071 0,-0.094 0.024,-0.068 0.085,-0.075 0.125,-0.125 0.03,-0.038 0.065,-0.087 0.094,-0.125 0.031,-0.041 0.042,-0.089 0.063,-0.125 0.02,-0.122 -0.06,-0.206 -0.031,-0.313 0.032,-0.12 0.196,-0.165 0.313,-0.219 0.04,-0.019 0.092,-0.05 0.125,-0.063 0.08,-0.028 0.176,-0.036 0.25,-0.063 0.125,-0.046 0.157,-0.167 0.219,-0.281 0.029,-0.054 0.057,-0.118 0.063,-0.156 0.005,-0.035 -0.007,-0.053 0,-0.094 0.006,-0.04 0.02,-0.081 0.031,-0.125 0.014,-0.058 0.031,-0.154 0.031,-0.219 0,-0.053 -0.029,-0.078 -0.031,-0.125 C 8.967,11.684 9.037,11.639 9.101,11.544 9.133,11.497 9.141,11.453 9.164,11.419 9.272,11.258 9.459,11.193 9.445,10.95 9.44,10.87 9.41,10.694 9.351,10.669 9.317,10.654 9.244,10.658 9.195,10.638 9.037,10.579 8.921,10.369 8.757,10.357 c -0.035,0 -0.055,0.031 -0.094,0.031 -0.065,0 -0.147,-0.053 -0.219,-0.063 -0.046,-10e-4 -0.129,0.013 -0.156,0 C 8.246,10.305 8.259,10.223 8.225,10.2 8.198,10.182 8.141,10.185 8.1,10.169 8.034,10.144 7.988,10.113 7.912,10.106 c -0.023,-10e-5 -0.067,0 -0.094,0 C 7.776,10.105 7.732,10.066 7.693,10.043 7.645,10.014 7.619,9.991 7.599,9.949 7.643,9.805 7.503,9.782 7.474,9.699 7.46,9.66 7.487,9.609 7.474,9.574 7.457,9.524 7.403,9.49 7.349,9.449 7.252,9.375 7.175,9.31 7.036,9.293 6.975,9.292 6.891,9.293 6.817,9.293 6.739,9.292 6.656,9.235 6.598,9.168 6.542,9.103 6.522,9.043 6.473,9.012 6.426,8.982 6.349,8.981 6.317,8.949 6.303,8.935 6.3,8.918 6.286,8.886 6.263,8.838 6.225,8.788 6.255,8.73 6.202,8.703 6.22,8.802 6.161,8.793 6.109,8.719 6.06,8.678 5.942,8.699 5.888,8.7 5.849,8.759 5.786,8.762 5.734,8.762 5.698,8.709 5.63,8.699 5.578,8.698 5.51,8.735 5.474,8.73 5.417,8.719 5.401,8.671 5.349,8.636 5.311,8.611 5.245,8.541 5.224,8.542 5.157,8.542 5.098,8.685 5.005,8.636 4.96,8.579 5.09,8.565 5.036,8.511 4.996,8.47 4.975,8.512 4.942,8.542 4.905,8.567 4.858,8.589 4.817,8.605 4.725,8.639 4.67,8.63 4.598,8.668 4.532,8.702 4.511,8.756 4.473,8.824 4.442,8.88 4.394,8.977 4.348,8.98 4.292,8.98 4.242,8.908 4.192,8.886 4.039,8.82 3.944,8.916 3.817,8.917 3.699,8.917 3.53,8.746 3.536,8.636 3.54,8.569 3.59,8.47 3.599,8.386 3.605,8.32 3.661,8.259 3.662,8.198 3.6621,8.117 3.527,8.051 3.474,8.042 3.349,8.019 3.179,8.103 3.036,8.042 3.009,7.997 3.083,7.961 3.099,7.917 3.108,7.892 3.09,7.883 3.099,7.854 3.115,7.812 3.173,7.774 3.193,7.729 3.208,7.695 3.209,7.647 3.224,7.604 3.241,7.555 3.283,7.513 3.287,7.479 3.292,7.434 3.26,7.384 3.224,7.354 3.113,7.355 3.037,7.354 2.974,7.385 2.83,7.451 2.868,7.651 2.724,7.698 2.674,7.714 2.591,7.719 2.536,7.729 2.489,7.73 2.429,7.761 2.38,7.76 2.322,7.7599 2.227,7.703 2.192,7.666 2.183,7.665 2.168,7.63 2.161,7.603 2.163,7.602 2.159,7.582 2.161,7.572 2.207,7.349 2.254,7.128 2.317,6.916 2.32,6.915 2.314,6.894 2.317,6.885 2.359,6.746 2.42,6.615 2.473,6.479 2.486,6.478 2.492,6.456 2.504,6.448 2.581,6.395 2.66,6.329 2.754,6.323 c 0.057,0 0.164,0.02 0.219,0.031 0.05,0.001 0.082,0.059 0.125,0.063 0.123,0.001 0.149,-0.103 0.25,-0.156 0.104,0.015 0.156,-0.001 0.25,0 0.064,10e-4 0.138,0.09 0.188,0.094 0.042,0 0.053,-0.069 0.094,-0.063 C 3.92,6.293 3.999,6.4 4.005,6.448 4.012,6.508 3.957,6.57 3.974,6.636 4.037,6.7 4.165,6.692 4.255,6.73 4.314,6.682 4.264,6.612 4.255,6.542 4.253,6.511 4.259,6.476 4.255,6.448 4.249,6.4 4.224,6.364 4.224,6.323 4.2239,6.133 4.378,6.023 4.505,5.948 4.56,5.915 4.613,5.879 4.661,5.854 4.728,5.82 4.761,5.791 4.817,5.76 4.918,5.703 5.019,5.668 5.098,5.604 c 0.037,-0.086 -0.004,-0.196 0,-0.281 0.037,-0.022 0.055,0 0.094,0 C 5.253,5.31 5.282,5.232 5.317,5.198 5.337,5.178 5.386,5.155 5.411,5.135 5.472,5.087 5.483,5.031 5.536,5.01 5.555,5.009 5.6,4.993 5.63,4.979 5.67,4.968 5.722,4.939 5.786,4.916 5.828,4.902 5.926,4.901 5.942,4.885 5.962,4.865 5.936,4.79 5.942,4.76 5.974,4.609 6.214,4.592 6.348,4.541 6.442,4.505 6.526,4.427 6.629,4.447 6.609,4.519 6.519,4.485 6.535,4.572 6.558,4.693 6.711,4.559 6.754,4.541 6.835,4.507 6.991,4.486 7.098,4.447 7.192,4.413 7.343,4.367 7.254,4.259 7.18,4.259 7.162,4.325 7.098,4.353 7.054,4.354 7.042,4.326 7.004,4.322 6.968,4.322 6.947,4.36 6.91,4.353 6.873,4.352 6.822,4.271 6.816,4.228 6.801,4.117 6.926,4.092 6.972,4.009 6.942,3.908 6.806,3.985 6.722,3.946 6.731,3.886 6.777,3.832 6.847,3.821 6.904,3.82 7.032,3.822 7.066,3.852 c 0.02,0.017 0,0.066 0.031,0.094 0.034,0.031 0.081,10e-4 0.125,0 C 7.238,3.87 7.116,3.903 7.128,3.852 7.218,3.793 7.393,3.836 7.503,3.821 7.566,3.82 7.634,3.759 7.691,3.727 7.745,3.697 7.79,3.646 7.847,3.696 7.863,3.75 7.815,3.762 7.784,3.79 7.682,3.881 7.582,3.997 7.503,4.103 c 0.049,0.048 0.136,0.022 0.219,0.031 0.032,0 0.06,0.025 0.094,0.031 0.04,0.001 0.094,-0.012 0.125,0 0.056,0.014 0.07,0.094 0.125,0.094 0.091,0 0.083,-0.125 0.031,-0.188 C 8.113,4.008 8.15,3.991 8.128,3.946 8.087,3.864 7.917,3.96 7.909,3.852 7.904,3.785 7.979,3.777 8.003,3.727 7.992,3.598 8.109,3.592 8.097,3.477 8.091,3.429 8.037,3.428 8.003,3.383 7.986,3.36 8.002,3.307 7.972,3.289 7.902,3.23 7.762,3.245 7.753,3.133 7.749,3.067 7.754,3.018 7.753,2.945 7.744,2.878 7.687,2.677 7.628,2.664 7.553,2.648 7.499,2.778 7.409,2.82 7.36,2.843 7.27,2.86 7.221,2.851 7.189,2.85 7.132,2.819 7.127,2.757 7.121,2.687 7.177,2.675 7.19,2.601 7.179,2.557 7.139,2.572 7.096,2.538 7.047,2.501 7.005,2.422 6.94,2.413 6.907,2.413 6.847,2.442 6.815,2.444 6.755,2.444 6.709,2.429 6.659,2.413 6.68,2.412 6.7,2.389 6.722,2.382 6.844,2.34 6.972,2.323 7.097,2.288 7.119,2.287 7.138,2.263 7.16,2.257 7.191,2.29 7.216,2.36 7.254,2.382 7.279,2.396 7.317,2.381 7.348,2.382 7.446,2.412 7.522,2.467 7.629,2.445 7.666,2.38 7.555,2.371 7.598,2.32 7.67,2.321 7.73,2.36 7.786,2.383 7.863,2.327 7.914,2.317 7.911,2.227 7.9109,2.181 7.849,2.164 7.817,2.133 7.88,2.122 7.941,2.111 8.005,2.102 8.01,2.119 8.026,2.132 8.036,2.133 8.074,2.134 8.201,2.082 8.224,2.07 8.228,2.07 8.218,2.043 8.224,2.039 8.477,2.012 8.745,2.008 9.005,2.008 m -2.5,0.469 C 6.482,2.52 6.458,2.556 6.411,2.571 6.423,2.636 6.327,2.676 6.317,2.727 6.311,2.762 6.315,2.821 6.317,2.852 6.337,3.171 6.066,3.329 5.754,3.321 5.693,3.379 5.725,3.491 5.691,3.571 5.663,3.638 5.571,3.702 5.503,3.696 5.453,3.696 5.378,3.617 5.378,3.571 5.378,3.514 5.459,3.48 5.409,3.415 5.416,3.371 5.515,3.329 5.503,3.259 5.491,3.185 5.407,3.24 5.315,3.228 5.263,3.227 5.182,3.191 5.127,3.165 5.228,3.098 5.332,3.039 5.44,2.977 5.534,2.921 5.625,2.872 5.721,2.821 5.973,2.694 6.243,2.577 6.502,2.477 m 5.374,0.75 c -0.027,0 -0.04,0.018 -0.063,0.031 -0.051,0.031 -0.054,0.079 -0.094,0.094 -0.054,0.021 -0.117,0.001 -0.125,0.063 -0.006,0.041 0.033,0.055 0.031,0.094 -0.02,0.049 -0.053,0.066 -0.063,0.125 0.068,0.11 0.229,-10e-4 0.313,-0.031 0.038,-0.011 0.073,0 0.094,-0.031 C 11.992,3.537 11.982,3.467 12,3.416 12.019,3.36 12.069,3.373 12.063,3.322 12.057,3.272 11.957,3.22 11.875,3.228 M 4.563,4.009 C 4.624,4.025 4.759,4.202 4.626,4.259 4.613,4.26 4.439,4.295 4.407,4.29 4.361,4.289 4.329,4.204 4.282,4.196 4.19,4.18 4.064,4.297 4.001,4.196 4.017,4.137 4.087,4.153 4.157,4.133 4.282,4.099 4.455,3.98 4.563,4.008 m 0.25,0.313 c 0.031,0 0.056,0.059 0.094,0.063 0.036,0 0.072,-0.036 0.094,-0.031 C 5.057,4.368 5.085,4.468 5.032,4.509 4.988,4.509 4.971,4.472 4.938,4.478 4.847,4.494 4.818,4.671 4.75,4.666 4.686,4.665 4.654,4.525 4.719,4.478 4.721,4.438 4.686,4.424 4.688,4.384 4.708,4.359 4.76,4.318 4.813,4.321 M 4.5,4.352 c 0.019,10e-5 0.024,0 0.031,0 C 4.522,4.423 4.492,4.443 4.437,4.477 4.342,4.534 4.28,4.605 4.249,4.727 4.24,4.763 4.138,4.861 4.093,4.852 3.987,4.83 4.131,4.632 4.156,4.602 4.183,4.569 4.218,4.546 4.25,4.508 4.28,4.471 4.283,4.403 4.313,4.383 4.345,4.361 4.445,4.35 4.501,4.352 M 14,4.383 c 0.048,0.013 0.058,0.069 0.094,0.094 0.027,0.018 0.064,0.012 0.094,0.031 0.035,0.022 0.054,0.06 0.094,0.094 0.056,0.047 0.14,0.088 0.219,0.125 0.016,10e-4 0.044,0.023 0.063,0.031 0.055,0.071 0.104,0.145 0.156,0.219 0.006,0.04 0.012,0.099 0.031,0.125 0.052,0.071 0.131,0.132 0.188,0.219 -10e-5,0.083 0.036,0.133 0.094,0.156 0.073,0.124 0.149,0.248 0.219,0.375 0.029,0.058 0.035,0.129 0.063,0.188 -0.021,0 -0.043,0.001 -0.063,0 C 15.186,5.924 14.843,5.901 14.814,6.071 14.801,6.146 14.863,6.246 14.751,6.259 14.68,6.26 14.598,6.186 14.501,6.165 14.461,6.164 14.407,6.179 14.376,6.165 14.303,6.14 14.314,6.053 14.251,6.009 14.215,5.984 14.121,5.953 14.063,5.946 c -0.036,0 -0.056,0 -0.094,0 C 13.924,5.945 13.851,5.945 13.813,5.915 13.777,5.893 13.697,5.853 13.688,5.821 13.674,5.772 13.778,5.707 13.782,5.665 13.784,5.634 13.759,5.62 13.751,5.571 13.746,5.542 13.757,5.497 13.751,5.477 13.75,5.443 13.68,5.415 13.626,5.414 c -0.048,0 -0.084,0.03 -0.125,0.031 -0.059,10e-5 -0.177,-0.037 -0.25,-0.031 -0.044,0 -0.084,0.028 -0.125,0.031 -0.116,10e-4 -0.191,-0.001 -0.281,0 -0.066,0 -0.189,0.034 -0.25,0.063 -0.031,0.014 -0.054,0.043 -0.094,0.063 -0.018,0.001 -0.039,0.021 -0.063,0.031 -0.038,0.017 -0.089,0.053 -0.125,0.063 -0.052,0.013 -0.124,0 -0.219,0 -0.068,0 -0.187,-0.014 -0.188,-0.094 -10e-5,-0.123 0.227,-0.072 0.344,-0.094 0.044,-0.001 0.073,-0.063 0.125,-0.094 0.025,-0.015 0.039,-0.015 0.063,-0.031 0.04,-0.028 0.119,-0.093 0.125,-0.125 0.006,-0.03 -0.035,-0.072 -0.031,-0.094 0.005,-0.028 0.057,-0.058 0.094,-0.094 0.056,-0.055 0.087,-0.12 0.156,-0.156 0.047,-0.025 0.135,-0.024 0.156,-0.063 0.005,-0.043 -10e-5,-0.055 0,-0.094 0.029,-0.027 0.038,-0.058 0.063,-0.063 0.072,-0.016 0.135,0.035 0.219,0.031 0.036,0 0.086,-0.001 0.125,-0.031 0.033,-0.022 0.062,-0.045 0.094,-0.063 0.035,-0.018 0.051,-0.059 0.094,-0.063 0.105,-0.001 0.171,0.124 0.219,0.188 0.04,0.053 0.153,0.119 0.219,0.156 0.037,0.021 0.084,0.045 0.125,0.063 0.087,0.039 0.247,0.165 0.25,0.25 0.002,0.042 -0.038,0.054 -0.031,0.094 C 14.381,5.299 14.438,5.229 14.44,5.163 14.4401,5.122 14.401,5.113 14.409,5.069 14.44,5.003 14.557,5.068 14.597,5.038 14.59,4.963 14.473,4.952 14.409,4.913 14.375,4.892 14.351,4.865 14.315,4.85 14.263,4.829 14.199,4.818 14.159,4.787 14.121,4.758 14.102,4.707 14.065,4.662 14.011,4.598 13.907,4.589 13.94,4.443 13.956,4.421 13.977,4.374 14.003,4.38 m -8.812,0.219 0.094,0 c 0.034,10e-5 0.08,-0.018 0.094,0 C 5.357,4.687 5.167,4.662 5.098,4.63 5.102,4.597 5.148,4.603 5.192,4.599 M 4.879,4.755 c 0.023,0 0.039,-0.001 0.063,0 C 4.88,4.807 4.798,4.847 4.692,4.88 4.641,4.896 4.576,4.905 4.567,4.849 4.556,4.78 4.614,4.793 4.661,4.786 4.719,4.785 4.811,4.757 4.88,4.755 m 8.687,0 c -0.043,0.014 -0.066,0.113 0,0.125 0.031,-0.018 0.039,-0.068 0.031,-0.125 -0.017,-0.018 -0.017,0 -0.031,0 m -0.031,0.188 c -0.021,0.001 -0.04,0.001 -0.063,0.031 10e-5,0.075 0.015,0.123 0,0.188 0.043,0.082 0.134,0.026 0.156,-0.031 0.026,-0.139 -0.03,-0.205 -0.094,-0.188 m 0.438,0.375 c 0.049,0.08 0.141,0.137 0.25,0.156 0.04,-0.03 0.044,-0.105 0.063,-0.156 -0.047,1e-4 -0.097,0 -0.156,0 -0.059,0 -0.122,-0.028 -0.156,0 M 2.287,8.005 c 0.164,-0.001 0.212,0.216 0.344,0.281 0.033,0.017 0.082,0.022 0.125,0.031 0.035,10e-4 0.061,0.02 0.094,0.031 0.071,0.024 0.162,10e-4 0.219,0.031 0.085,0.038 0.146,0.207 0.219,0.25 0.004,0.043 -0.013,0.093 0,0.125 0.035,0.047 0.099,0.064 0.156,0.094 0.068,0.037 0.092,0.127 0.156,0.156 0.022,0.001 0.059,-10e-4 0.094,0 C 3.782,9.031 3.806,9.151 3.882,9.129 3.932,9.115 3.937,9.051 3.945,9.004 3.978,8.968 4.019,8.911 4.07,8.91 c 0.083,0 0.095,0.075 0.125,0.156 0.017,0.046 0.051,0.108 0.063,0.156 0.021,0.083 0.017,0.325 0,0.375 C 4.237,9.658 4.152,9.686 4.102,9.753 4.078,9.784 4.058,9.824 4.039,9.847 4.007,9.887 3.97,9.904 3.945,9.941 3.931,9.962 3.927,10.007 3.914,10.035 c -0.04,0.085 -0.096,0.148 -0.063,0.25 0.014,0.042 0.062,0.076 0.063,0.125 0,0.058 -0.115,0.093 -0.125,0.156 -0.007,0.047 0.048,0.126 0.063,0.188 0.011,0.047 0.097,0.094 0.125,0.125 0.047,0.053 0.082,0.121 0.125,0.188 0.085,0.13 0.136,0.28 0.219,0.406 0.043,0.066 0.127,0.119 0.156,0.188 0.015,0.035 -0.014,0.094 0,0.125 0.048,0.108 0.266,0.228 0.375,0.281 0.051,0.025 0.11,0 0.156,0.031 0.071,0.039 0.214,0.157 0.25,0.219 0.032,0.056 0.047,0.193 0.063,0.281 0.021,0.117 -0.005,0.217 0,0.344 0.004,0.069 0.03,0.119 0.031,0.188 0,0.024 10e-5,0.07 0,0.094 -0.002,0.083 0.007,0.166 0,0.25 -0.004,0.046 -0.003,0.087 0,0.125 0.004,0.041 0.028,0.057 0.031,0.094 0.002,0.039 -0.035,0.095 -0.031,0.125 0.009,0.084 0.077,0.142 0.094,0.219 0.013,0.061 0.039,0.208 0.031,0.281 -0.005,0.039 -0.025,0.083 -0.031,0.125 -0.004,0.033 0.005,0.062 0,0.094 -0.006,0.047 -0.034,0.081 -0.031,0.125 0.006,0.09 0.08,0.16 0.094,0.25 0.005,0.03 -1e-4,0.065 0,0.094 10e-5,0.027 0.023,0.038 0.031,0.063 C 5.277,14.919 5.031,14.751 4.79,14.569 4.561,14.396 4.339,14.205 4.134,14.006 4.133,14.005 4.113,13.985 4.103,13.975 3.896,13.771 3.689,13.547 3.509,13.319 3.405,13.187 3.291,13.052 3.196,12.913 3.14,12.83 3.092,12.749 3.04,12.663 3.008,12.612 2.977,12.559 2.946,12.507 2.857,12.354 2.773,12.199 2.696,12.038 2.647,11.937 2.615,11.83 2.571,11.725 2.466,11.477 2.366,11.236 2.29,10.975 2.236,10.79 2.204,10.604 2.165,10.412 2.135,10.266 2.092,10.123 2.071,9.974 2.06,9.893 2.048,9.806 2.04,9.724 2.016,9.489 2.009,9.247 2.009,9.005 c 0,-0.302 0.026,-0.584 0.063,-0.875 10e-5,-0.001 -1e-4,-0.021 0,-0.031 0.063,0 0.149,-0.092 0.219,-0.094 m 2.688,0.75 C 5.043,8.726 5.063,8.872 5.01,8.88 4.96,8.881 4.93,8.778 4.979,8.755"/>
</svg>
